<?xml version="1.0" standalone="no"?>
<!DOCTYPE svg PUBLIC "-//W3C//DTD SVG 20010904//EN"
 "http://www.w3.org/TR/2001/REC-SVG-20010904/DTD/svg10.dtd">
<svg version="1.0" xmlns="http://www.w3.org/2000/svg"
 width="96.000000pt" height="96.000000pt" viewBox="0 0 96.000000 96.000000"
 preserveAspectRatio="xMidYMid meet">

<g transform="translate(0.000000,96.000000) scale(0.100000,-0.100000)"
fill="#000000" stroke="none">
<path d="M145 815 l-25 -24 0 -311 0 -311 25 -24 24 -25 217 0 217 0 118 123
118 122 1 213 0 213 -25 24 -24 25 -311 0 -311 0 -24 -25z m615 -235 l0 -180
-100 0 -100 0 0 -100 0 -100 -180 0 -180 0 0 280 0 280 280 0 280 0 0 -180z"/>
<path d="M280 640 l0 -40 200 0 200 0 0 40 0 40 -200 0 -200 0 0 -40z"/>
<path d="M280 480 l0 -40 100 0 100 0 0 40 0 40 -100 0 -100 0 0 -40z"/>
</g>
</svg>
